# xmcd
#
# Track frame offsets: 
#        150
#        14151
#        31697
#        48872
#        67187
#        84582
#        102080
#        118114
#        136887
#        156000
#        173811
#        191373
#        209315
#        221657
#        240122
#        255583
#        274666
#        293139
#        317108
#
# Disc length: 4416 seconds
#
# Revision: 1
# Processed by: cddbd v1.5.2PL0 Copyright (c) Steve Scherf et al.
# Submitted via: ExactAudioCopy v0.95b3
#
DISCID=09113e13
DTITLE=Various Artist - HP200726
DYEAR=2007
DGENRE=Top 40
TTITLE0=Norah Jones - Not Too Late
TTITLE1=Chrisette Michele - Best Of Me [Main]
TTITLE2=Jordan McCoy - Just Watch Me [Main Version]
TTITLE3=Linda Kiraly - Can't Let Go [Radio Edit With Guitars]
TTITLE4=Dream - Shawty Is Da Shid
TTITLE5=J. Holiday - Bed [Radio Edit]
TTITLE6=Common - The People [Radio Edit]
TTITLE7=Pretty Ricky - Love Like Honey [Radio Edit]
TTITLE8=Chamillionaire Feat. Slick Rick - Hip Hop Police [Clean]
TTITLE9=Tracy Lawrence - Til I Was A Daddy Too
TTITLE10=Brad Paisley - Online [Single Edit]
TTITLE11=Clint Black - The Strong One
TTITLE12=Linkin Park - Bleed It Out [Clean Album Version]
TTITLE13=Hinder - Homecoming Queen [Alt Version]
TTITLE14=Starting Line - Island (Float Away)
TTITLE15=Miguel Migs - So Far [Rasmus Faber's Farplane Vocal - Radio E
TTITLE15=dit]
TTITLE16=Dangerous Muse - Give Me Danger [Michael Skype-Ssigler Mix]
TTITLE17=Leeland - Tears Of The Saints [Radio Edit]
TTITLE18=Lincoln Brewster - Love The Lord
EXTD=This List Includes Artists
EXTT0=
EXTT1=
EXTT2=
EXTT3=
EXTT4=
EXTT5=
EXTT6=
EXTT7=
EXTT8=
EXTT9=
EXTT10=
EXTT11=
EXTT12=
EXTT13=
EXTT14=
EXTT15=
EXTT16=
EXTT17=
EXTT18=
PLAYORDER=
